<svg xmlns="http://www.w3.org/2000/svg" width="67" height="70" viewBox="0 0 67 70" fill="none">
  <path d="M66.6696 2.63448C66.4108 2.1356 66.0206 1.71688 65.5412 1.42353C65.0619 1.13018 64.5115 0.973325 63.9494 0.96991H35.5299C34.7224 0.96991 33.9479 1.29072 33.3768 1.86175C32.8058 2.43279 32.485 3.20729 32.485 4.01486C32.485 4.82243 32.8058 5.59692 33.3768 6.16796C33.9479 6.739 34.7224 7.05981 35.5299 7.05981H57.8596L50.3487 17.4532C50.1141 17.7731 49.9448 18.1361 49.8505 18.5214C49.7562 18.9067 49.7387 19.3069 49.799 19.6989C49.8593 20.091 49.9963 20.4674 50.202 20.8065C50.4078 21.1457 50.6784 21.441 50.9983 21.6756C51.3182 21.9102 51.6811 22.0794 52.0665 22.1737C52.4518 22.2681 52.8519 22.2856 53.244 22.2252C53.636 22.1649 54.0124 22.028 54.3516 21.8222C54.6907 21.6164 54.986 21.3459 55.2206 21.026L66.3854 5.80123C66.7287 5.3549 66.9378 4.82002 66.9881 4.25919C67.0384 3.69836 66.928 3.1348 66.6696 2.63448Z" fill="white"/>
  <path d="M19.8992 1.86313C19.8992 1.86313 19.8992 1.86313 19.6962 1.86313C19.4647 1.66341 19.2047 1.49921 18.9248 1.37594C18.6384 1.26589 18.3376 1.19753 18.0317 1.17294H3.05051C2.4885 1.17636 1.9381 1.33321 1.45871 1.62656C0.979328 1.91992 0.58917 2.33863 0.330356 2.83752C0.0720085 3.33783 -0.0384659 3.9014 0.0118649 4.46222C0.0621956 5.02305 0.271249 5.55794 0.614551 6.00426L22.3352 35.4794V66.9438C22.3457 67.7481 22.6699 68.5165 23.2387 69.0853C23.8074 69.6541 24.5758 69.9783 25.3801 69.9888H41.6199C42.4242 69.9783 43.1926 69.6541 43.7613 69.0853C44.3301 68.5165 44.6543 67.7481 44.6648 66.9438V35.4794L44.9084 35.114L59.7677 49.8109C60.0489 50.0956 60.384 50.3212 60.7535 50.4746C61.123 50.628 61.5194 50.706 61.9195 50.7041C62.3199 50.7083 62.717 50.6313 63.0868 50.4778C63.4567 50.3243 63.7915 50.0974 64.0713 49.8109C64.6415 49.24 64.9618 48.4661 64.9618 47.6591C64.9618 46.8522 64.6415 46.0783 64.0713 45.5074L19.8992 1.86313ZM39.1839 32.678C38.7862 33.1883 38.5717 33.8175 38.5749 34.4644V63.8989H28.4251V34.4644C28.4283 33.8175 28.2138 33.1883 27.8161 32.678L9.14041 7.05984H16.5295L40.5237 30.8104L39.1839 32.678Z" fill="white"/>
</svg>