<svg xmlns="http://www.w3.org/2000/svg" width="71" height="80" viewBox="0 0 71 80" fill="none">
  <path d="M18.287 69.0645H11.8328C8.86384 69.0645 6.45425 66.6549 6.45425 63.6859V12.0519C6.45425 9.08296 8.86384 6.67337 11.8328 6.67337H27.9684V27.1118C27.9684 28.876 29.4314 30.339 31.1956 30.339H51.8492C52.2794 31.5868 53.4412 32.4904 54.8611 32.4904C56.6253 32.4904 58.0883 31.0274 58.0883 29.2632V27.1118C58.0883 26.6815 58.0022 26.2513 57.8301 25.864C57.658 25.4768 57.4428 25.1325 57.1417 24.8313L33.4761 1.16574C33.1749 0.864542 32.8306 0.649399 32.4434 0.477286C32.0561 0.305173 31.6258 0.219116 31.1956 0.219116H11.8328C5.29249 0.219116 0 5.5116 0 12.0519V63.6859C0 70.2262 5.29249 75.5187 11.8328 75.5187H18.287C20.0512 75.5187 21.5142 74.0558 21.5142 72.2916C21.5142 70.5274 20.0512 69.0645 18.287 69.0645ZM34.4227 11.2344L47.073 23.8847H34.4227V11.2344ZM68.243 37.3095C66.6079 35.6745 64.1983 34.6848 61.7027 34.6418C59.121 34.5127 56.6683 35.5024 55.0333 37.1805L27.5381 64.7186C26.9788 65.278 26.6776 65.9664 26.5915 66.7409L25.817 76.3363C25.731 77.2829 26.0752 78.2295 26.7636 78.8749C27.366 79.4773 28.1836 79.8216 29.0441 79.8216H29.3453L39.0267 78.918C39.7582 78.8319 40.4897 78.5307 41.006 77.9713L68.5011 50.4332C71.9434 47.034 71.8143 40.8809 68.243 37.3095ZM63.9401 45.8722L37.2626 72.5928L32.5725 73.0231L32.9167 68.4621L59.5943 41.7415C60.0246 41.3112 60.7991 41.1391 61.5736 41.096C62.4341 41.096 63.2086 41.3972 63.682 41.8706C64.7146 42.8602 64.8437 44.9686 63.9401 45.8722Z" fill="white"/>
</svg>