<svg xmlns="http://www.w3.org/2000/svg" width="52" height="52" viewBox="0 0 52 52" fill="none">
  <path d="M22.5653 44.3707C18.2426 44.3707 14.017 43.0889 10.4229 40.6874C6.82876 38.2858 4.02747 34.8724 2.37327 30.8789C0.719064 26.8853 0.28625 22.4908 1.12955 18.2512C1.97286 14.0116 4.05441 10.1173 7.11098 7.06078C10.1675 4.00421 14.0618 1.92266 18.3014 1.07935C22.541 0.236048 26.9355 0.668863 30.9291 2.32307C34.9226 3.97727 38.336 6.77856 40.7376 10.3727C43.1391 13.9668 44.4209 18.1924 44.4209 22.5151C44.4209 25.3852 43.8556 28.2272 42.7572 30.8789C41.6589 33.5305 40.049 35.9398 38.0195 37.9693C35.9901 39.9988 33.5807 41.6087 30.9291 42.707C28.2774 43.8054 25.4354 44.3707 22.5653 44.3707ZM22.5653 5.04214C19.1209 5.04214 15.7539 6.06351 12.8901 7.97708C10.0262 9.89065 7.79411 12.6105 6.47602 15.7926C5.15793 18.9748 4.81306 22.4763 5.48502 25.8545C6.15697 29.2326 7.81558 32.3357 10.2511 34.7712C12.6866 37.2067 15.7896 38.8653 19.1678 39.5372C22.5459 40.2092 26.0475 39.8643 29.2296 38.5462C32.4118 37.2282 35.1316 34.996 37.0452 32.1322C38.9588 29.2683 39.9801 25.9013 39.9801 22.457C39.9801 17.8383 38.1453 13.4088 34.8794 10.1428C31.6135 6.87692 27.184 5.04214 22.5653 5.04214Z" fill="#EBEBEB"/>
  <path d="M49.3551 51.4818C49.0691 51.4831 48.7857 51.4273 48.5216 51.3177C48.2574 51.208 48.0178 51.0467 47.8168 50.8432L35.8296 38.856C35.4451 38.4433 35.2358 37.8975 35.2457 37.3336C35.2557 36.7696 35.4841 36.2316 35.8829 35.8327C36.2818 35.4339 36.8199 35.2054 37.3838 35.1955C37.9478 35.1855 38.4936 35.3949 38.9062 35.7794L50.8935 47.7666C51.3011 48.1748 51.5301 48.728 51.5301 49.3049C51.5301 49.8818 51.3011 50.4351 50.8935 50.8432C50.6925 51.0467 50.4529 51.208 50.1887 51.3177C49.9246 51.4273 49.6412 51.4831 49.3551 51.4818Z" fill="#EBEBEB"/>
</svg>