<svg xmlns="http://www.w3.org/2000/svg" width="74" height="66" viewBox="0 0 74 66" fill="none">
  <path d="M70.6101 65.2191H3.15152C2.59899 65.2174 2.05628 65.0729 1.57609 64.7996C1.0959 64.5262 0.694552 64.1333 0.411017 63.6591C0.141485 63.1757 0 62.6315 0 62.078C0 61.5246 0.141485 60.9804 0.411017 60.497L34.1403 1.47076C34.4403 1.01852 34.8475 0.647549 35.3257 0.390924C35.8039 0.1343 36.3381 0 36.8808 0C37.4235 0 37.9577 0.1343 38.4359 0.390924C38.9141 0.647549 39.3213 1.01852 39.6213 1.47076L73.3506 60.497C73.6201 60.9804 73.7616 61.5246 73.7616 62.078C73.7616 62.6315 73.6201 63.1757 73.3506 63.6591C73.067 64.1333 72.6657 64.5262 72.1855 64.7996C71.7053 65.0729 71.1626 65.2174 70.6101 65.2191ZM8.59037 58.8948H65.1712L36.8808 9.39714L8.59037 58.8948Z" fill="white"/>
  <path d="M36.8807 42.0301C36.0455 42.0192 35.2475 41.6826 34.6569 41.0919C34.0662 40.5012 33.7295 39.7033 33.7186 38.868V24.1115C33.7186 23.2728 34.0518 22.4685 34.6448 21.8755C35.2378 21.2825 36.0421 20.9493 36.8807 20.9493C37.7194 20.9493 38.5237 21.2825 39.1167 21.8755C39.7097 22.4685 40.0429 23.2728 40.0429 24.1115V38.868C40.0319 39.7033 39.6953 40.5012 39.1046 41.0919C38.514 41.6826 37.716 42.0192 36.8807 42.0301Z" fill="white"/>
  <path d="M36.8807 54.6787C36.0455 54.6677 35.2475 54.3311 34.6569 53.7404C34.0662 53.1498 33.7295 52.3518 33.7186 51.5165V49.4085C33.7186 48.5698 34.0518 47.7655 34.6448 47.1725C35.2378 46.5795 36.0421 46.2463 36.8807 46.2463C37.7194 46.2463 38.5237 46.5795 39.1167 47.1725C39.7097 47.7655 40.0429 48.5698 40.0429 49.4085V51.5165C40.0319 52.3518 39.6953 53.1498 39.1046 53.7404C38.514 54.3311 37.716 54.6677 36.8807 54.6787Z" fill="white"/>
</svg>