<svg xmlns="http://www.w3.org/2000/svg" width="75" height="76" viewBox="0 0 75 76" fill="none">
  <path d="M64.6038 75.3936H63.6231C52.5749 74.1915 41.9604 70.4246 32.626 64.3933C23.9544 58.8703 16.5919 51.5222 11.0517 42.8616C5.00644 33.5028 1.2389 22.8573 0.0513749 11.7792C-0.0844106 10.4579 0.049652 9.12276 0.44543 7.8548C0.841209 6.58685 1.49045 5.41251 2.35377 4.40304C3.19345 3.38005 4.22989 2.53596 5.40168 1.92077C6.57348 1.30558 7.85682 0.931784 9.17569 0.821533H20.2613C22.6622 0.823955 24.9832 1.68479 26.805 3.24859C28.6269 4.8124 29.8295 6.97608 30.1957 9.34893C30.6005 12.3969 31.3589 15.3875 32.4555 18.2601C33.1225 20.0652 33.2602 22.0233 32.8523 23.9041C32.4444 25.7848 31.508 27.51 30.1531 28.8767L27.5522 31.4775C31.6472 37.9421 37.14 43.4059 43.6264 47.4664L46.2272 44.9082C47.5939 43.5533 49.3191 42.6168 51.1998 42.209C53.0806 41.8011 55.0387 41.9388 56.8438 42.6058C59.7196 43.6923 62.7089 44.4504 65.755 44.8655C68.1683 45.2283 70.3663 46.4594 71.9364 48.3278C73.5064 50.1962 74.3406 52.5733 74.2824 55.0131V65.246C74.2824 67.9073 73.2281 70.4603 71.3503 72.3461C69.4724 74.2319 66.924 75.2971 64.2627 75.3083L64.6038 75.3936ZM20.2613 7.17444H10.0711C9.57072 7.20752 9.08227 7.34171 8.63524 7.56889C8.18821 7.79607 7.79188 8.11152 7.47021 8.49619C7.15713 8.85653 6.92019 9.27648 6.77364 9.73078C6.6271 10.1851 6.57398 10.6643 6.61747 11.1397C7.65136 21.1883 11.0245 30.855 16.4666 39.3654C21.4834 47.2391 28.1633 53.9189 36.037 58.9357C44.5527 64.4352 54.2301 67.8799 64.3053 68.9981C64.8293 69.0276 65.3537 68.9481 65.8454 68.7646C66.3371 68.5812 66.7854 68.2977 67.162 67.9321C67.8409 67.236 68.223 66.3036 68.2279 65.3313V55.141C68.2471 54.2437 67.9365 53.3706 67.355 52.6869C66.7735 52.0033 65.9615 51.5567 65.0728 51.4316C61.5503 50.958 58.0903 50.1002 54.7546 48.8734C54.0975 48.6277 53.3841 48.5734 52.6974 48.7168C52.0106 48.8602 51.3786 49.1954 50.8747 49.6835L46.611 53.9472C46.1116 54.4341 45.4684 54.7469 44.7771 54.8391C44.0858 54.9312 43.3831 54.7979 42.7736 54.4589C33.6757 49.3177 26.1451 41.8019 20.9861 32.714C20.633 32.1084 20.4916 31.4025 20.5843 30.7076C20.6769 30.0128 20.9983 29.3686 21.4978 28.8767L25.7615 24.613C26.2504 24.1185 26.5868 23.4938 26.7304 22.8133C26.8741 22.1329 26.8189 21.4256 26.5716 20.7756C25.3402 17.4414 24.4822 13.9808 24.0134 10.4575C23.9076 9.54193 23.4647 8.69854 22.7711 8.09163C22.0775 7.48472 21.1828 7.15776 20.2613 7.17444Z" fill="white"/>
</svg>